<svg xmlns="http://www.w3.org/2000/svg" viewBox="0 0 41.07 41.13"><defs><style>.cls-1{fill:#322612;}.cls-2{fill:#fff;}</style></defs><g id="Layer_2" data-name="Layer 2"><g id="Logo"><rect class="cls-1" width="41.07" height="41.13" rx="9.3"/><path class="cls-2" d="M33.84,25.81a9.05,9.05,0,0,1-2.18,6.39q-2.37,2.7-7.36,2.7H23.08V31.39h.8c4.18,0,6.34-1.18,6.49-3.56.09-1-.25-1.46-1-1.46a2.56,2.56,0,0,0-1,.25,2,2,0,0,0-.47.16,5.75,5.75,0,0,1-.77.06c-1.82,0-2.73-1-2.73-3.1a6.33,6.33,0,0,1,1.21-3.66,3.82,3.82,0,0,1,2.73-1.89c1.16-.17,2.32.47,3.48,1.91A8.33,8.33,0,0,1,33.84,25.81ZM30.56,12.09a2.07,2.07,0,0,1-2.1,1.38,2.52,2.52,0,0,1-.58-.06,2,2,0,0,1-1.54-2.07,2.74,2.74,0,0,1,.08-.64,2,2,0,0,1,2-1.43,4.48,4.48,0,0,1,.72.08,2,2,0,0,1,1.46,2A3.45,3.45,0,0,1,30.56,12.09Z"/><path class="cls-2" d="M10.37,34.9V17.61H7.23V15h3.14V12.93A6.8,6.8,0,0,1,12.08,8a6.43,6.43,0,0,1,4.83-1.75,8.85,8.85,0,0,1,2.34.31l-.19,2.75a9.64,9.64,0,0,0-1.83-.17,3.3,3.3,0,0,0-2.56,1,3.94,3.94,0,0,0-.9,2.78V15H18v2.63H13.77V34.9Z"/></g></g></svg>